<svg xmlns="http://www.w3.org/2000/svg" version="1.1" xmlns:xlink="http://www.w3.org/1999/xlink" xmlns:svgjs="http://svgjs.dev/svgjs" width="1500" height="935" viewBox="0 0 1500 935"><g transform="matrix(1,0,0,1,-0.9090909090909918,169.2027266134138)"><svg viewBox="0 0 396 247" data-background-color="#ffffff" preserveAspectRatio="xMidYMid meet" height="935" width="1500" xmlns="http://www.w3.org/2000/svg" xmlns:xlink="http://www.w3.org/1999/xlink"><g id="tight-bounds" transform="matrix(1,0,0,1,0.2400000000000091,-0.09999999999999432)"><svg viewBox="0 0 395.52 247.2" height="247.2" width="395.52"><g><svg></svg></g><g><svg viewBox="0 0 395.52 247.2" height="247.2" width="395.52"><g transform="matrix(1,0,0,1,75.54432,68.74749544010203)"><svg viewBox="0 0 244.43135999999998 109.70500911979592" height="109.70500911979592" width="244.43135999999998"><g><svg viewBox="0 0 244.43135999999998 109.70500911979592" height="109.70500911979592" width="244.43135999999998"><g transform="matrix(1,0,0,1,0,55.77060337675145)"><svg viewBox="0 0 244.43135999999998 53.934405743044465" height="53.934405743044465" width="244.43135999999998"><g id="textblocktransform"><svg viewBox="0 0 244.43135999999998 53.934405743044465" height="53.934405743044465" width="244.43135999999998" id="textblock"><g><svg viewBox="0 0 244.43135999999998 30.56879085412302" height="30.56879085412302" width="244.43135999999998"><g transform="matrix(1,0,0,1,0,0)"><svg width="244.43135999999998" viewBox="0.26983999999999897 -20.47769150575875 384.4454152313702 48.0790322160084" height="30.56879085412302" data-palette-color="#778899"><path d="M29.368-14.632l-2.572 3.306c-0.325-0.517-0.788-1.032-1.39-1.547-0.594-0.521-1.279-1.01-2.056-1.469-0.771-0.458-1.626-0.863-2.566-1.217-0.941-0.347-1.936-0.594-2.987-0.74v0c-2.694-0.376-4.752-0.146-6.175 0.692-1.423 0.838-2.259 2.145-2.507 3.92v0c-0.174 1.248 0.018 2.281 0.577 3.1 0.553 0.811 1.481 1.543 2.783 2.196 1.296 0.646 2.963 1.363 5 2.153v0c2.356 0.868 4.366 1.802 6.03 2.802 1.671 1.001 2.893 2.202 3.667 3.602 0.775 1.394 1.015 3.144 0.72 5.25v0c-0.234 1.677-0.758 3.085-1.57 4.224-0.813 1.145-1.85 2.04-3.111 2.685-1.26 0.638-2.69 1.041-4.289 1.208-1.591 0.161-3.291 0.116-5.1-0.137v0c-1.776-0.248-3.483-0.679-5.12-1.292-1.637-0.619-3.161-1.394-4.573-2.325-1.411-0.931-2.698-2.033-3.859-3.306v0l2.642-3.447c0.45 0.635 1.056 1.282 1.819 1.94 0.756 0.658 1.637 1.292 2.642 1.904 1.006 0.605 2.113 1.137 3.321 1.595 1.209 0.452 2.471 0.769 3.785 0.953v0c2.496 0.349 4.497 0.167 6.003-0.544 1.506-0.712 2.381-1.936 2.624-3.672v0c0.184-1.314-0.055-2.421-0.718-3.322-0.663-0.894-1.713-1.71-3.151-2.449-1.439-0.733-3.205-1.515-5.296-2.346v0c-2.281-0.925-4.178-1.849-5.691-2.774-1.512-0.932-2.59-2.031-3.234-3.3-0.638-1.26-0.829-2.808-0.573-4.644v0c0.313-2.238 1.118-4.051 2.416-5.438 1.299-1.394 2.954-2.354 4.966-2.88 2.018-0.519 4.225-0.611 6.622-0.276v0c1.578 0.221 3.024 0.591 4.338 1.111 1.321 0.521 2.531 1.158 3.631 1.911 1.099 0.759 2.083 1.617 2.952 2.573zM37.155 18.064l-4.449-0.519 4.094-35.082 14.621 1.706c1.549 0.181 2.929 0.667 4.139 1.46 1.21 0.792 2.232 1.781 3.067 2.965 0.829 1.177 1.427 2.465 1.794 3.864 0.374 1.393 0.481 2.781 0.319 4.166v0c-0.223 1.914-0.863 3.685-1.919 5.313-1.063 1.628-2.431 2.888-4.106 3.779-1.667 0.886-3.541 1.208-5.62 0.965v0l-10.468-1.221zM40.789-13.065l-1.701 14.571 10.221 1.193c1.218 0.142 2.319-0.062 3.303-0.611 0.984-0.556 1.797-1.364 2.437-2.424 0.64-1.06 1.038-2.248 1.192-3.566v0c0.162-1.384 0.012-2.66-0.45-3.828-0.467-1.175-1.14-2.133-2.02-2.873-0.881-0.734-1.897-1.168-3.05-1.302v0zM78.107 22.521v0c-2.483-0.222-4.687-0.918-6.611-2.088-1.923-1.176-3.545-2.68-4.867-4.512-1.315-1.831-2.276-3.848-2.882-6.051-0.599-2.202-0.799-4.425-0.597-6.67v0c0.21-2.344 0.832-4.544 1.865-6.6 1.034-2.056 2.376-3.85 4.026-5.382 1.65-1.532 3.528-2.696 5.634-3.492 2.099-0.796 4.341-1.087 6.725-0.874v0c2.477 0.222 4.675 0.934 6.595 2.137 1.927 1.203 3.537 2.73 4.831 4.579 1.3 1.85 2.254 3.866 2.863 6.049 0.601 2.189 0.802 4.389 0.604 6.6v0c-0.21 2.344-0.822 4.545-1.836 6.603-1.021 2.057-2.356 3.852-4.006 5.384-1.65 1.532-3.527 2.69-5.632 3.472-2.098 0.776-4.335 1.058-6.712 0.845zM67.662 3.604v0c-0.16 1.786-0.026 3.538 0.402 5.257 0.429 1.718 1.113 3.269 2.054 4.651 0.94 1.383 2.121 2.519 3.54 3.41 1.419 0.897 3.038 1.427 4.858 1.589v0c1.879 0.168 3.598-0.076 5.156-0.733 1.559-0.664 2.918-1.61 4.079-2.838 1.154-1.229 2.077-2.645 2.77-4.25 0.692-1.598 1.113-3.24 1.264-4.927v0c0.16-1.786 0.025-3.529-0.406-5.227-0.43-1.705-1.121-3.26-2.072-4.663-0.959-1.398-2.139-2.534-3.54-3.409-1.408-0.876-3.001-1.393-4.781-1.553v0c-1.886-0.169-3.607 0.069-5.164 0.713-1.557 0.644-2.912 1.58-4.067 2.808-1.161 1.228-2.096 2.634-2.807 4.217-0.704 1.584-1.133 3.235-1.287 4.955zM105.743 24.453l-4.472-0.283 2.225-35.249 15.09 0.952c1.557 0.098 2.96 0.511 4.21 1.237 1.25 0.727 2.32 1.659 3.211 2.798 0.897 1.132 1.566 2.387 2.006 3.764 0.448 1.371 0.628 2.752 0.541 4.142v0c-0.102 1.623-0.506 3.144-1.21 4.563-0.704 1.418-1.644 2.605-2.82 3.56-1.176 0.955-2.518 1.585-4.027 1.89v0l7.681 14.041-5.06-0.319-7.245-13.172-9.331-0.589zM107.716-6.825l-0.924 14.641 10.669 0.673c1.224 0.077 2.314-0.195 3.268-0.816 0.954-0.621 1.723-1.478 2.307-2.57 0.583-1.092 0.916-2.284 0.997-3.574v0c0.084-1.324-0.136-2.557-0.659-3.699-0.529-1.149-1.251-2.086-2.167-2.812-0.923-0.72-1.964-1.116-3.121-1.189v0zM160.706-8.294l-0.149 3.977-12.181-0.455-1.17 31.318-4.477-0.167 1.17-31.318-12.172-0.455 0.149-3.977zM188.042-4.126l-2.143 3.6c-0.387-0.472-0.91-0.927-1.57-1.363-0.654-0.443-1.395-0.844-2.223-1.202-0.822-0.359-1.721-0.655-2.697-0.889-0.977-0.227-1.995-0.349-3.055-0.365v0c-2.72-0.039-4.734 0.445-6.042 1.454-1.308 1.008-1.975 2.408-2.001 4.201v0c-0.018 1.26 0.301 2.261 0.957 3.004 0.649 0.736 1.661 1.347 3.034 1.834 1.367 0.48 3.109 0.985 5.229 1.516v0c2.445 0.569 4.556 1.246 6.331 2.031 1.782 0.786 3.144 1.826 4.085 3.119 0.942 1.287 1.397 2.994 1.367 5.121v0c-0.024 1.693-0.369 3.155-1.034 4.385-0.665 1.237-1.583 2.254-2.754 3.051-1.172 0.79-2.54 1.367-4.105 1.731-1.559 0.358-3.251 0.523-5.078 0.497v0c-1.793-0.026-3.54-0.241-5.241-0.646-1.701-0.411-3.309-0.991-4.826-1.74-1.516-0.749-2.929-1.682-4.24-2.801v0l2.195-3.749c0.525 0.574 1.207 1.141 2.045 1.7 0.832 0.559 1.785 1.079 2.858 1.561 1.073 0.476 2.238 0.866 3.494 1.171 1.256 0.298 2.547 0.457 3.873 0.475v0c2.52 0.036 4.483-0.392 5.889-1.285 1.406-0.893 2.122-2.216 2.148-3.969v0c0.019-1.327-0.355-2.395-1.124-3.207-0.768-0.804-1.912-1.484-3.431-2.039-1.519-0.549-3.368-1.105-5.547-1.671v0c-2.378-0.634-4.375-1.317-5.991-2.046-1.616-0.737-2.823-1.694-3.619-2.873-0.79-1.172-1.171-2.684-1.144-4.537v0c0.033-2.26 0.607-4.158 1.722-5.695 1.116-1.544 2.639-2.702 4.57-3.475 1.938-0.765 4.117-1.131 6.537-1.096v0c1.593 0.023 3.074 0.211 4.442 0.564 1.375 0.353 2.655 0.835 3.84 1.446 1.185 0.617 2.267 1.346 3.249 2.187zM230.306-4.66l-2.022 3.669c-0.402-0.459-0.94-0.896-1.615-1.311-0.668-0.421-1.422-0.797-2.261-1.128-0.833-0.331-1.741-0.598-2.726-0.799-0.984-0.195-2.006-0.283-3.065-0.263v0c-2.72 0.051-4.716 0.601-5.99 1.652-1.274 1.051-1.894 2.472-1.861 4.265v0c0.023 1.26 0.375 2.25 1.055 2.971 0.673 0.714 1.704 1.292 3.093 1.733 1.382 0.434 3.14 0.882 5.276 1.342v0c2.463 0.488 4.595 1.095 6.395 1.821 1.807 0.726 3.203 1.721 4.187 2.982 0.984 1.255 1.495 2.946 1.534 5.073v0c0.032 1.693-0.264 3.165-0.888 4.417-0.623 1.258-1.507 2.305-2.651 3.14-1.145 0.828-2.493 1.45-4.046 1.866-1.546 0.409-3.232 0.63-5.059 0.664v0c-1.793 0.033-3.546-0.124-5.26-0.472-1.714-0.355-3.34-0.881-4.88-1.579-1.54-0.698-2.983-1.585-4.33-2.66v0l2.069-3.819c0.544 0.557 1.244 1.1 2.101 1.631 0.85 0.531 1.819 1.02 2.908 1.466 1.088 0.44 2.265 0.791 3.53 1.054 1.265 0.256 2.561 0.372 3.887 0.348v0c2.52-0.047 4.467-0.54 5.843-1.479 1.376-0.939 2.048-2.285 2.016-4.038v0c-0.025-1.326-0.434-2.382-1.23-3.168-0.795-0.779-1.96-1.42-3.496-1.925-1.536-0.498-3.402-0.993-5.599-1.486v0c-2.397-0.555-4.416-1.171-6.055-1.848-1.64-0.683-2.877-1.6-3.712-2.751-0.828-1.145-1.259-2.644-1.294-4.497v0c-0.042-2.26 0.469-4.176 1.533-5.749 1.064-1.58 2.548-2.788 4.453-3.624 1.912-0.829 4.077-1.266 6.497-1.311v0c1.593-0.03 3.079 0.109 4.458 0.417 1.386 0.308 2.681 0.747 3.886 1.318 1.204 0.578 2.311 1.27 3.319 2.078zM262.608-9.785l0.169 3.977-12.179 0.519 1.336 31.312-4.476 0.191-1.336-31.312-12.168 0.519-0.17-3.976zM263.553-9.854l4.909-0.33 11.911 17.651 9.531-19.092 4.869-0.327-11.895 23.29 0.863 12.851-4.469 0.3-0.871-12.951zM326.369 20.667l-24.083 2.161-3.157-35.179 4.462-0.4 2.801 31.215 19.621-1.761zM335.504 15.6l19.378-2.176 0.444 3.955-23.83 2.676-3.941-35.1 23.383-2.625 0.444 3.955-18.931 2.125 1.276 11.369 16.457-1.848 0.416 3.707-16.456 1.848zM380.033-17.864l-1.577 3.88c-0.453-0.409-1.039-0.779-1.757-1.112-0.713-0.34-1.505-0.625-2.379-0.854-0.866-0.231-1.8-0.389-2.8-0.475-1-0.078-2.025-0.045-3.075 0.099v0c-2.695 0.369-4.613 1.151-5.755 2.343-1.142 1.193-1.591 2.678-1.348 4.455v0c0.171 1.248 0.637 2.19 1.397 2.826 0.753 0.63 1.844 1.083 3.275 1.358 1.423 0.269 3.222 0.507 5.397 0.714v0c2.503 0.195 4.691 0.548 6.565 1.058 1.88 0.509 3.382 1.333 4.507 2.47 1.124 1.131 1.831 2.75 2.119 4.858v0c0.23 1.678 0.109 3.175-0.363 4.491-0.471 1.323-1.226 2.466-2.265 3.429-1.04 0.957-2.306 1.733-3.799 2.328-1.487 0.587-3.136 1.005-4.946 1.253v0c-1.777 0.244-3.536 0.293-5.279 0.148-1.743-0.151-3.421-0.483-5.032-0.995-1.611-0.513-3.149-1.224-4.612-2.134v0l1.607-4.035c0.605 0.489 1.365 0.947 2.277 1.373 0.906 0.428 1.926 0.799 3.06 1.115 1.132 0.309 2.342 0.52 3.63 0.633 1.286 0.106 2.587 0.069 3.901-0.111v0c2.497-0.342 4.373-1.06 5.629-2.155 1.256-1.094 1.765-2.51 1.528-4.247v0c-0.18-1.314-0.711-2.315-1.593-3.001-0.881-0.68-2.113-1.181-3.698-1.502-1.584-0.314-3.495-0.587-5.734-0.819v0c-2.446-0.27-4.523-0.645-6.231-1.124-1.708-0.486-3.045-1.251-4.009-2.296-0.957-1.04-1.561-2.478-1.813-4.314v0c-0.307-2.239-0.024-4.202 0.848-5.89 0.871-1.694 2.204-3.068 3.998-4.121 1.801-1.048 3.9-1.736 6.298-2.065v0c1.579-0.216 3.071-0.253 4.476-0.109 1.412 0.143 2.75 0.427 4.013 0.853 1.264 0.432 2.444 0.991 3.54 1.675z" opacity="1" transform="matrix(1,0,0,1,0,0)" fill="#778899" class="wordmark-text-0" data-fill-palette-color="primary" id="text-0"></path></svg></g></svg></g><g transform="matrix(1,0,0,1,85.78266348028433,39.74977902265797)"><svg viewBox="0 0 72.86603303943134 14.184626720386493" height="14.184626720386493" width="72.86603303943134"><g transform="matrix(1,0,0,1,0,0)"><svg width="72.86603303943134" viewBox="0.35 -37.7 249.37 48.550000000000004" height="14.184626720386493" data-palette-color="#778899"><path d="M11.75-35.25Q14.75-35.25 17.05-34.2 19.35-33.15 21.3-31.05L21.3-31.05 18.35-27.65Q16.8-29.05 15.33-29.75 13.85-30.45 12.2-30.45L12.2-30.45Q10.3-30.45 9.2-29.28 8.1-28.1 8.1-26.2L8.1-26.2Q8.1-24.3 9.25-23.1 10.4-21.9 13.75-20.6L13.75-20.6Q18.05-18.85 20.08-16.5 22.1-14.15 22.1-9.85L22.1-9.85Q22.1-6.9 20.75-4.48 19.4-2.05 16.88-0.65 14.35 0.75 11 0.75L11 0.75Q7.55 0.75 5-0.48 2.45-1.7 0.35-3.95L0.35-3.95 3.55-7.45Q5.35-5.85 7-5 8.65-4.15 10.6-4.15L10.6-4.15Q12.9-4.15 14.18-5.58 15.45-7 15.45-9.45L15.45-9.45Q15.45-11.6 14.33-12.98 13.2-14.35 10.15-15.5L10.15-15.5Q5.55-17.35 3.53-19.75 1.5-22.15 1.5-25.75L1.5-25.75Q1.5-28.5 2.83-30.65 4.15-32.8 6.5-34.02 8.85-35.25 11.75-35.25L11.75-35.25ZM38.3-27.15Q42.2-27.15 44.2-23.58 46.2-20 46.2-13.3L46.2-13.3Q46.2-6.8 43.92-3.03 41.65 0.75 37.6 0.75L37.6 0.75Q34.4 0.75 32.25-2.1L32.25-2.1 32.25 10.15 26.1 10.85 26.1-26.45 31.55-26.45 31.8-23.25Q33.1-25.25 34.7-26.2 36.3-27.15 38.3-27.15L38.3-27.15ZM35.95-3.95Q37.85-3.95 38.85-6.13 39.85-8.3 39.85-13.25L39.85-13.25Q39.85-18.45 39-20.5 38.15-22.55 36.35-22.55L36.35-22.55Q34.05-22.55 32.25-19.25L32.25-19.25 32.25-6.45Q33.85-3.95 35.95-3.95L35.95-3.95ZM60.2-27.15Q65.2-27.15 67.97-23.65 70.75-20.15 70.75-13.25L70.75-13.25Q70.75-6.65 67.95-2.95 65.15 0.75 60.2 0.75L60.2 0.75Q55.25 0.75 52.45-2.88 49.65-6.5 49.65-13.25L49.65-13.25Q49.65-19.95 52.45-23.55 55.25-27.15 60.2-27.15L60.2-27.15ZM60.2-22.5Q58.05-22.5 57.05-20.38 56.05-18.25 56.05-13.25L56.05-13.25Q56.05-8.2 57.05-6.08 58.05-3.95 60.2-3.95L60.2-3.95Q62.35-3.95 63.35-6.08 64.35-8.2 64.35-13.25L64.35-13.25Q64.35-18.3 63.35-20.4 62.35-22.5 60.2-22.5L60.2-22.5ZM86.94-27.1Q88.09-27.1 88.99-26.75L88.99-26.75 87.99-20.85Q86.99-21.1 86.14-21.1L86.14-21.1Q84.24-21.1 83.14-19.45 82.04-17.8 81.44-14.55L81.44-14.55 81.44 0 75.29 0 75.29-26.45 80.64-26.45 81.09-21.85Q82.94-27.1 86.94-27.1L86.94-27.1ZM102.99-5L105.14-1.2Q102.69 0.75 99.39 0.75L99.39 0.75Q95.94 0.75 94.14-1.23 92.34-3.2 92.34-6.6L92.34-6.6 92.34-22 89.24-22 89.24-26.45 92.34-26.45 92.34-32.3 98.49-33.05 98.49-26.45 103.49-26.45 102.89-22 98.49-22 98.49-6.6Q98.49-4.2 100.54-4.2L100.54-4.2Q101.19-4.2 101.69-4.38 102.19-4.55 102.99-5L102.99-5ZM115.04-27.15Q119.74-27.15 122.99-24.05L122.99-24.05 120.64-20.7Q119.24-21.7 117.99-22.2 116.74-22.7 115.44-22.7L115.44-22.7Q113.99-22.7 113.16-21.93 112.34-21.15 112.34-19.8L112.34-19.8Q112.34-18.45 113.26-17.63 114.19-16.8 116.99-15.7L116.99-15.7Q120.44-14.35 122.09-12.5 123.74-10.65 123.74-7.55L123.74-7.55Q123.74-3.7 121.04-1.48 118.34 0.75 114.19 0.75L114.19 0.75Q111.49 0.75 109.21-0.23 106.94-1.2 105.24-2.95L105.24-2.95 108.24-6.25Q111.04-3.8 113.94-3.8L113.94-3.8Q115.59-3.8 116.54-4.67 117.49-5.55 117.49-7.1L117.49-7.1Q117.49-8.25 117.09-8.97 116.69-9.7 115.69-10.33 114.69-10.95 112.69-11.7L112.69-11.7Q109.24-13.05 107.76-14.85 106.29-16.65 106.29-19.45L106.29-19.45Q106.29-22.8 108.66-24.98 111.04-27.15 115.04-27.15L115.04-27.15ZM146.33-35.25Q149.33-35.25 151.63-34.2 153.93-33.15 155.88-31.05L155.88-31.05 152.93-27.65Q151.38-29.05 149.91-29.75 148.43-30.45 146.78-30.45L146.78-30.45Q144.88-30.45 143.78-29.28 142.68-28.1 142.68-26.2L142.68-26.2Q142.68-24.3 143.83-23.1 144.98-21.9 148.33-20.6L148.33-20.6Q152.63-18.85 154.66-16.5 156.68-14.15 156.68-9.85L156.68-9.85Q156.68-6.9 155.33-4.48 153.98-2.05 151.46-0.65 148.93 0.75 145.58 0.75L145.58 0.75Q142.13 0.75 139.58-0.48 137.03-1.7 134.93-3.95L134.93-3.95 138.13-7.45Q139.93-5.85 141.58-5 143.23-4.15 145.18-4.15L145.18-4.15Q147.48-4.15 148.76-5.58 150.03-7 150.03-9.45L150.03-9.45Q150.03-11.6 148.91-12.98 147.78-14.35 144.73-15.5L144.73-15.5Q140.13-17.35 138.11-19.75 136.08-22.15 136.08-25.75L136.08-25.75Q136.08-28.5 137.41-30.65 138.73-32.8 141.08-34.02 143.43-35.25 146.33-35.25L146.33-35.25ZM171.83-5L173.98-1.2Q171.53 0.75 168.23 0.75L168.23 0.75Q164.78 0.75 162.98-1.23 161.18-3.2 161.18-6.6L161.18-6.6 161.18-22 158.08-22 158.08-26.45 161.18-26.45 161.18-32.3 167.33-33.05 167.33-26.45 172.33-26.45 171.73-22 167.33-22 167.33-6.6Q167.33-4.2 169.38-4.2L169.38-4.2Q170.03-4.2 170.53-4.38 171.03-4.55 171.83-5L171.83-5ZM195.18-26.45L188.18 0.1Q186.88 4.9 183.98 7.65 181.08 10.4 176.23 10.85L176.23 10.85 175.53 6.5Q178.68 5.85 180.25 4.42 181.83 3 182.73 0L182.73 0 180.43 0 173.73-26.45 179.98-26.45 184.38-4.1 189.08-26.45 195.18-26.45ZM203.68 0.75Q200.98 0.75 199.4-0.93 197.83-2.6 197.83-5.4L197.83-5.4 197.83-37.05 203.98-37.7 203.98-5.65Q203.98-5 204.28-4.6 204.58-4.2 205.18-4.2L205.18-4.2Q205.53-4.2 205.85-4.3 206.18-4.4 206.28-4.4L206.28-4.4 207.48-0.2Q205.78 0.75 203.68 0.75L203.68 0.75ZM229.37-13.85Q229.37-13.4 229.22-11.3L229.22-11.3 215.57-11.3Q215.77-7.2 217-5.58 218.22-3.95 220.47-3.95L220.47-3.95Q222.02-3.95 223.27-4.48 224.52-5 225.97-6.15L225.97-6.15 228.52-2.65Q225.02 0.75 220.12 0.75L220.12 0.75Q214.92 0.75 212.15-2.85 209.37-6.45 209.37-13L209.37-13Q209.37-19.55 212.02-23.35 214.67-27.15 219.52-27.15L219.52-27.15Q224.17-27.15 226.77-23.78 229.37-20.4 229.37-13.85L229.37-13.85ZM223.37-15.3L223.37-15.65Q223.37-19.4 222.47-21.13 221.57-22.85 219.57-22.85L219.57-22.85Q217.72-22.85 216.75-21.18 215.77-19.5 215.57-15.3L215.57-15.3 223.37-15.3ZM241.02-27.15Q245.72-27.15 248.97-24.05L248.97-24.05 246.62-20.7Q245.22-21.7 243.97-22.2 242.72-22.7 241.42-22.7L241.42-22.7Q239.97-22.7 239.15-21.93 238.32-21.15 238.32-19.8L238.32-19.8Q238.32-18.45 239.25-17.63 240.17-16.8 242.97-15.7L242.97-15.7Q246.42-14.35 248.07-12.5 249.72-10.65 249.72-7.55L249.72-7.55Q249.72-3.7 247.02-1.48 244.32 0.75 240.17 0.75L240.17 0.75Q237.47 0.75 235.2-0.23 232.92-1.2 231.22-2.95L231.22-2.95 234.22-6.25Q237.02-3.8 239.92-3.8L239.92-3.8Q241.57-3.8 242.52-4.67 243.47-5.55 243.47-7.1L243.47-7.1Q243.47-8.25 243.07-8.97 242.67-9.7 241.67-10.33 240.67-10.95 238.67-11.7L238.67-11.7Q235.22-13.05 233.75-14.85 232.27-16.65 232.27-19.45L232.27-19.45Q232.27-22.8 234.65-24.98 237.02-27.15 241.02-27.15L241.02-27.15Z" opacity="1" transform="matrix(1,0,0,1,0,0)" fill="#778899" class="slogan-text-1" data-fill-palette-color="secondary" id="text-1"></path></svg></g></svg></g></svg></g></svg></g><g transform="matrix(1,0,0,1,106.5696738153765,0)"><svg viewBox="0 0 31.292012369246983 53.934405743044465" height="53.934405743044465" width="31.292012369246983"><g><svg xmlns="http://www.w3.org/2000/svg" xmlns:xlink="http://www.w3.org/1999/xlink" version="1.1" x="0" y="0" viewBox="21.679106830508623 1 56.85827385947761 98" enable-background="new 0 0 100 100" xml:space="preserve" height="53.934405743044465" width="31.292012369246983" class="icon-icon-0" data-fill-palette-color="accent" id="icon-0"><g fill="#778899" data-fill-palette-color="accent"><path fill-rule="evenodd" clip-rule="evenodd" d="M30.545 28.822c-1.165 7.217 0.33 14.85 6.5 19.041C30.758 19.81 45.756 8.664 59.646 1c-16.18 23.046 16.896 23.644 18.777 50.13C80.028 73.71 64.507 91.317 46.639 99c0.206-22.825-22.55-25.933-24.838-44.603C20.905 47.094 25.062 33.766 30.545 28.822z" fill="#778899" data-fill-palette-color="accent"></path></g></svg></g></svg></g><g></g></svg></g></svg></g><g><path d="M93.662 59.567A122.216 122.216 0 0 1 301.858 59.567L298.351 59.567A118.709 118.709 0 0 0 97.169 59.567L93.662 59.567M93.662 187.633A122.216 122.216 0 0 0 301.858 187.633L298.351 187.633A118.709 118.709 0 0 1 97.169 187.633L93.662 187.633" fill="#778899" stroke="transparent" data-fill-palette-color="tertiary"></path></g></svg></g><defs></defs></svg><rect width="395.52" height="247.2" fill="none" stroke="none" visibility="hidden"></rect></g></svg></g></svg>